<svg width="227" height="193" viewBox="0 0 227 193" fill="none" xmlns="http://www.w3.org/2000/svg">
<path d="M49.0737 102L42.3368 113.76H50L34 144L42 118.66H35.1368L42 102H49.0737Z" fill="#E51A4D" fill-opacity="0.5"/>
<path d="M111.974 110L97.2368 133.24H114L79 193L96.5 142.923H81.4868L96.5 110H111.974Z" fill="#E51A4D"/>
<path d="M163.189 83L157.295 92.52H164L150 117L157 96.4867H150.995L157 83H163.189Z" fill="#E51A4D" fill-opacity="0.4"/>
<path d="M226.637 60.6942C226.473 60.9656 226.27 61.237 226.004 61.4954C214.538 72.5443 167.531 69.3265 167.531 69.3265C167.531 69.3265 169.087 79.1219 160.873 80.272C155.393 81.0344 150.874 76.6537 150.874 76.6537C150.874 76.6537 142.964 91.3079 128.978 93.1171C118.081 94.5256 111.955 86.6299 111.955 86.6299C111.955 86.6299 110.183 107.681 81.5917 106.983C69.1249 106.673 61.822 101.93 57.5567 96.6837C53.6457 99.7334 48.5957 101.62 42.6344 99.307C36.9136 97.0843 33.9519 93.0266 32.4205 89.292C23.8519 90.7135 13.9544 89.8606 6.23379 82.0812C-0.815985 74.9996 -1.3096 65.243 1.89255 56.9338C4.13278 51.0669 8.2462 45.9495 13.1823 42.9903C26.8136 34.8361 41.7611 37.9763 45.2164 44.4247C46.6846 36.2834 54.4811 35.5985 57.2149 38.0021C57.7338 27.4056 66.0366 18.0238 80.0223 16.2534C93.9952 14.4572 104.247 22.4821 106.323 31.7347C108.905 26.3718 115.891 23.7485 121.27 26.1004C126.624 28.4782 129.561 35.4564 127.523 41.0519C134.573 31.7347 147.052 27.0438 158.342 29.4732C169.644 31.9027 179.2 41.3362 181.959 52.7856C199.957 41.0906 230.548 53.7806 226.663 60.7201L226.637 60.6942Z" fill="white"/>
<path d="M227 60.6108C226.835 60.8827 226.632 61.1545 226.366 61.4134C214.881 72.4822 167.799 69.2587 167.799 69.2587C167.799 69.2587 169.358 79.0716 161.131 80.2238C155.642 80.9876 151.116 76.599 151.116 76.599C151.116 76.599 143.193 91.2796 129.185 93.092C118.27 94.5031 112.134 86.5932 112.134 86.5932C112.134 86.5932 110.359 107.682 81.7223 106.983C69.2355 106.672 61.9209 101.921 57.6488 96.6651C53.7316 99.7203 48.6735 101.61 42.7026 99.2931C36.9727 97.0664 34.0063 93.0014 32.4724 89.2601C23.8901 90.6841 13.9767 89.8297 6.24376 82.0363C-0.817291 74.9419 -1.31169 65.1678 1.89557 56.8435C13.1781 59.6916 18.4263 72.4175 19.5799 73.8803C16.4487 61.9313 27.4396 48.5193 39.5207 49.5809C50.7525 50.5648 61.5659 57.9957 63.8478 72.6505C52.6287 73.5955 41.9674 77.4534 38.9756 87.1628C46.8607 78.4373 62.0223 74.1393 69.8947 82.8907C69.7806 78.5927 73.3808 57.3484 86.6536 50.6942C99.9264 44.0401 119.576 50.6942 123.848 59.9635C128.247 46.7975 152.396 48.5323 159.521 55.2641C152.307 57.3096 145.868 62.0219 141.646 68.3136C148.213 63.0576 152.155 63.2518 159.597 67.1096C163.172 55.4065 174.657 57.9957 180.171 61.4264C187.917 52.6491 202.8 55.1347 208.504 56.4422C211.636 57.1672 219.457 59.2515 227 60.6237V60.6108Z" fill="#E6E6E6"/>
</svg>
